<svg width="2133" height="1408" viewBox="0 0 2133 1408" fill="none" xmlns="http://www.w3.org/2000/svg">
<path d="M1560 1.99995C1546.53 4.93329 1530.27 13.8666 1520 24C1515.07 28.8 1294.53 294.4 1029.87 614.4L548.667 1196L342 989.6L135.333 783.067L124 777.467C98.9333 765.2 71.5999 765.067 47.1999 777.333C33.4666 784.267 22.6666 793.867 14.5333 806.4C2.53327 824.667 -1.86673 844.133 1.0666 864.8C3.19993 879.333 6.53327 888.133 14.5333 900.267C23.7333 914.133 499.733 1389.33 510.933 1395.87C542 1413.87 580.133 1411.07 608.133 1388.93C613.333 1384.8 775.2 1190.13 1132.13 758.933C1693.07 81.0666 1657.47 125.2 1662.13 102.667C1664.8 90.1333 1663.87 72.1333 1660.13 60C1646.93 18.2666 1603.2 -7.20005 1560 1.99995Z" fill="black"/>
<path d="M2029.33 2.00007C2015.87 4.93341 1999.6 13.8667 1989.33 24.0001C1984.4 28.8001 1764 294.4 1499.33 614.267L1018.13 1195.87L1003.47 1181.6C991.467 1170.13 986.533 1166.27 977.333 1161.6C952.533 1149.2 925.067 1149.07 900.533 1161.33C886.8 1168.27 876 1177.87 867.867 1190.4C855.867 1208.67 851.467 1228.13 854.4 1248.8C858.533 1276.67 862.8 1282.67 923.467 1342.67C957.2 1376.13 975.067 1392.8 980.267 1395.73C1011.2 1413.87 1049.33 1411.2 1077.47 1388.93C1082.67 1384.8 1244.53 1190.13 1601.47 758.933C2162.4 81.0667 2126.8 125.2 2131.47 102.667C2134.13 90.1334 2133.2 72.1334 2129.47 60.0001C2116.27 18.2667 2072.53 -7.19993 2029.33 2.00007Z" fill="black"/>
</svg>
