<svg width="1664" height="1408" viewBox="0 0 1664 1408" fill="none" xmlns="http://www.w3.org/2000/svg">
<path d="M1560 1.99997C1546.53 4.93332 1530.27 13.8667 1520 24C1515.07 28.7999 1294.53 294.4 1029.87 614.4L548.667 1196L342 989.6L135.333 783.067L124 777.467C98.9333 765.2 71.5999 765.067 47.1999 777.333C33.4666 784.267 22.6666 793.867 14.5333 806.4C2.53327 824.667 -1.86673 844.133 1.0666 864.8C3.19993 879.333 6.53327 888.133 14.5333 900.267C23.7333 914.133 499.733 1389.33 510.933 1395.87C542 1413.87 580.133 1411.07 608.133 1388.93C613.333 1384.8 775.2 1190.13 1132.13 758.933C1693.07 81.0666 1657.47 125.2 1662.13 102.667C1664.8 90.1333 1663.87 72.1333 1660.13 60C1646.93 18.2666 1603.2 -7.2001 1560 1.99997Z" fill="#0685E8"/>
</svg>