<svg width="191" height="61" viewBox="0 0 191 61" fill="none" xmlns="http://www.w3.org/2000/svg">
<path d="M76.2415 15.792C76.2415 14.3799 78.029 13.2362 80.2362 13.2362C82.4434 13.2362 84.2309 14.3799 84.2309 15.792V45.2279C84.2309 46.64 82.4434 47.7837 80.2362 47.7837C78.029 47.7837 76.2415 46.64 76.2415 45.2279V15.792ZM114.759 15.792C114.759 14.3799 112.971 13.2362 110.764 13.2362C108.557 13.2362 106.769 14.3799 106.769 15.792V45.2279C106.769 46.64 108.557 47.7837 110.764 47.7837C112.971 47.7837 114.759 46.64 114.759 45.2279V15.792ZM191 9.40756C191 7.99544 189.228 6.86175 187.067 6.86175C184.891 6.86175 183.135 7.99544 183.135 9.40756V51.6024C183.135 53.0145 184.907 54.1482 187.067 54.1482C189.244 54.1482 191 53.0145 191 51.6024V9.40756ZM175.814 2.55575C175.814 1.14363 174.026 0 171.819 0C169.612 0 167.824 1.14363 167.824 2.55575V58.4442C167.824 59.8564 169.612 61 171.819 61C174.026 61 175.814 59.8564 175.814 58.4442V2.55575ZM130.022 21.5399C130.022 20.1278 128.235 18.9842 126.028 18.9842C123.82 18.9842 122.033 20.1278 122.033 21.5399V39.4601C122.033 40.8722 123.82 42.0158 126.028 42.0158C128.235 42.0158 130.022 40.8722 130.022 39.4601V21.5399ZM145.271 15.792C145.271 14.3799 143.483 13.2362 141.276 13.2362C139.069 13.2362 137.281 14.3799 137.281 15.792V45.2279C137.281 46.64 139.069 47.7837 141.276 47.7837C143.483 47.7837 145.271 46.64 145.271 45.2279V15.792ZM160.488 9.40756C160.488 7.99544 158.716 6.86175 156.555 6.86175C154.379 6.86175 152.623 7.99544 152.623 9.40756V51.6024C152.623 53.0145 154.395 54.1482 156.555 54.1482C158.731 54.1482 160.488 53.0145 160.488 51.6024V9.40756ZM0 9.40756C0 8.00538 1.77197 6.86175 3.93254 6.86175C6.10864 6.86175 7.86507 7.99544 7.86507 9.40756V51.6024C7.86507 53.0145 6.0931 54.1482 3.93254 54.1482C1.75643 54.1482 0 53.0046 0 51.6024V9.40756ZM15.2017 2.55575C15.2017 1.14363 16.9892 0 19.1964 0C21.4036 0 23.1911 1.14363 23.1911 2.55575V58.4442C23.1911 59.8564 21.4036 61 19.1964 61C16.9892 61 15.2017 59.8564 15.2017 58.4442V2.55575ZM60.9776 21.5399C60.9776 20.1278 62.7651 18.9842 64.9723 18.9842C67.1795 18.9842 68.967 20.1278 68.967 21.5399V39.4601C68.967 40.8722 67.1795 42.0158 64.9723 42.0158C62.7651 42.0158 60.9776 40.8722 60.9776 39.4601V21.5399ZM45.7293 15.792C45.7293 14.3799 47.5168 13.2362 49.724 13.2362C51.9312 13.2362 53.7188 14.3799 53.7188 15.792V45.2279C53.7188 46.64 51.9312 47.7837 49.724 47.7837C47.5168 47.7837 45.7293 46.64 45.7293 45.2279V15.792ZM30.5121 9.40756C30.5121 7.99544 32.2841 6.86175 34.4447 6.86175C36.6208 6.86175 38.3772 7.99544 38.3772 9.40756V51.6024C38.3772 53.0145 36.6052 54.1482 34.4447 54.1482C32.2686 54.1482 30.5121 53.0145 30.5121 51.6024V9.40756ZM91.5519 9.40756C91.5519 7.99544 93.3239 6.86175 95.4845 6.86175C97.6606 6.86175 99.417 7.99544 99.417 9.40756V51.6024C99.417 53.0145 97.645 54.1482 95.4845 54.1482C93.3084 54.1482 91.5519 53.0145 91.5519 51.6024V9.40756Z" fill="white"/>
</svg>
